<svg xmlns="http://www.w3.org/2000/svg" width="27.89" height="27.89" viewBox="0 0 27.89 27.89"><defs><style>.cls-1{fill:#fff;}</style></defs><title>icon-ig_white</title><g id="Layer_2" data-name="Layer 2"><g id="Blog"><g id="Footer_Destinos_copia_2" data-name="Footer Destinos copia 2"><path class="cls-1" d="M13.94,0a13.95,13.95,0,1,0,14,13.94A13.94,13.94,0,0,0,13.94,0Zm9.29,17.63a5.56,5.56,0,0,1-5.55,5.55H10.3a5.56,5.56,0,0,1-5.55-5.55V10.25A5.56,5.56,0,0,1,10.3,4.7h7.38a5.56,5.56,0,0,1,5.55,5.55Z"/><path class="cls-1" d="M14.06,11A2.92,2.92,0,1,0,17,13.94,2.92,2.92,0,0,0,14.06,11Z"/><path class="cls-1" d="M17.68,6.44H10.3a3.82,3.82,0,0,0-3.81,3.81v7.38a3.82,3.82,0,0,0,3.81,3.81h7.38a3.82,3.82,0,0,0,3.81-3.81V10.25A3.82,3.82,0,0,0,17.68,6.44Zm-3.62,12a4.55,4.55,0,1,1,4.55-4.55A4.55,4.55,0,0,1,14.06,18.49Zm4.82-8.32A1.09,1.09,0,1,1,20,9.09,1.08,1.08,0,0,1,18.88,10.17Z"/></g></g></g></svg>