<svg xmlns="http://www.w3.org/2000/svg" width="27.89" height="27.89" viewBox="0 0 27.89 27.89"><defs><style>.cls-1{fill:#0088d0;}</style></defs><title>icon-yt_blue</title><g id="Layer_2" data-name="Layer 2"><g id="Header"><path class="cls-1" d="M12.67,16.39l3.91-2.16a.26.26,0,0,0,0-.45l-4-2.24c-.17-.1-.33,0-.33.22l0,4.41C12.35,16.36,12.5,16.49,12.67,16.39Z"/><path class="cls-1" d="M14,27.89A13.95,13.95,0,1,0,0,14,13.95,13.95,0,0,0,14,27.89ZM5.37,11.75A3.79,3.79,0,0,1,9.14,8L19,7.9a3.78,3.78,0,0,1,3.8,3.76l0,4.6A3.8,3.8,0,0,1,19,20.07l-9.81.05a3.79,3.79,0,0,1-3.8-3.77Z"/></g></g></svg>