<svg xmlns="http://www.w3.org/2000/svg" width="28.5" height="28.5" viewBox="0 0 28.5 28.5"><defs><style>.cls-1{fill:none;stroke:#fff;stroke-miterlimit:10;}.cls-2{fill:#fff;}</style></defs><title>icon-mail_white</title><g id="Layer_2" data-name="Layer 2"><g id="Blog"><g id="Footer_Destinos_copia_2" data-name="Footer Destinos copia 2"><circle class="cls-1" cx="14.25" cy="14.25" r="13.75"/><path class="cls-2" d="M20.48,8.05H8A1.9,1.9,0,0,0,6.09,9.91v8.68A1.9,1.9,0,0,0,8,20.45H20.48a1.9,1.9,0,0,0,1.93-1.86V9.91a1.9,1.9,0,0,0-1.93-1.86Zm0,10.76H8c-.15,0-.29-.1-.29-.22V11.06l5.63,4.75a.63.63,0,0,0,.41.15h1a.63.63,0,0,0,.41-.15l5.63-4.75v7.53c0,.12-.14.22-.29.22Zm-6.23-4.48L8.77,9.69h11Z"/></g></g></g></svg>