<svg id="Capa_1" data-name="Capa 1" xmlns="http://www.w3.org/2000/svg" viewBox="0 0 5717.91 716.18"><defs><style>.cls-1{fill:#386677;}.cls-2{fill:#569cad;}</style></defs><title>logocrystal</title><path class="cls-1" d="M940.46,64.72V-251.64h126.69v61.14h-62.24V-129h59.66v59.66h-59.66V3.22h66.29v61.5H940.46Z" transform="translate(3275.97 267.51)"/><path class="cls-1" d="M1136,64.72L1097-252h60.4l23.2,215.45L1201.21-252h60.4l-39,316.73H1136Z" transform="translate(3275.97 267.51)"/><path class="cls-1" d="M1294.38,64.72V-251.64h126.69v61.14h-62.24V-129h59.66v59.66h-59.66V3.22h66.29v61.5H1294.38Z" transform="translate(3275.97 267.51)"/><path class="cls-1" d="M1460.84,64.72V-251.64H1526l29.09,151.37V-251.64h61.14V64.72h-61.87L1522.71-93.64V64.72h-61.87Z" transform="translate(3275.97 267.51)"/><path class="cls-1" d="M1686.23,64.72V-190.87h-37.57v-60.77h138.48v60.77h-37.56V64.72h-63.35Z" transform="translate(3275.97 267.51)"/><path class="cls-1" d="M940.46,121.67h83.6q37.93,0,54.14,24.49t16.2,71.63q0,47.15-14.36,71.08t-51.56,23.94h-25.78V438H940.46V121.67Zm65.92,134.06q11.41,0,16.76-4.24t7-12.15q1.66-7.92,1.66-22.65,0-19.89-4.42-28.73t-17.68-8.84h-7v76.6h3.68Z" transform="translate(3275.97 267.51)"/><path class="cls-1" d="M1146.33,417.59q-19.89-23.38-19.89-65.74V201.22q0-40.88,19.89-61.69t58.19-20.81q38.3,0,58.19,20.81t19.89,61.69V351.85q0,42.73-19.89,65.92T1204.52,441Q1166.21,441,1146.33,417.59Zm69.61-42.17q2.94-7.36,2.95-20.62V200.12q0-10.31-2.76-16.76t-11.23-6.45q-15.84,0-15.84,23.94V355.17q0,13.63,3.31,20.62t12.15,7Q1213,382.79,1215.94,375.42Z" transform="translate(3275.97 267.51)"/><path class="cls-1" d="M1322.74,121.67H1420q23.2,0,35.91,10.5T1473,161.63q4.42,19,4.42,48.43,0,26.89-7,42t-24.31,21q14.36,3,20.81,14.36t6.45,30.94L1472.63,438h-61.87V314.29q0-13.26-5.16-16.94t-18.78-3.68V438h-64.08V121.67Zm79.55,117.11q13.26,0,13.26-28.73a117.41,117.41,0,0,0-1.1-18.78q-1.1-6.26-4.05-8.65t-8.47-2.39h-14.73v58.56h15.1Z" transform="translate(3275.97 267.51)"/><path class="cls-1" d="M1540.39,438V182.44h-37.57V121.67H1641.3v60.77h-37.56V438h-63.35Z" transform="translate(3275.97 267.51)"/><path class="cls-1" d="M1673.71,438V121.67H1800.4v61.5h-63v50.46h59.66V294.4h-59.66V438h-63.71Z" transform="translate(3275.97 267.51)"/><path class="cls-1" d="M1852.69,417.59q-19.89-23.38-19.89-65.74V201.22q0-40.88,19.89-61.69t58.19-20.81q38.3,0,58.19,20.81T1989,201.22V351.85q0,42.73-19.89,65.92T1910.88,441Q1872.57,441,1852.69,417.59Zm69.61-42.17q2.94-7.36,2.95-20.62V200.12q0-10.31-2.76-16.76t-11.23-6.45q-15.84,0-15.84,23.94V355.17q0,13.63,3.31,20.62t12.15,7Q1919.35,382.79,1922.3,375.42Z" transform="translate(3275.97 267.51)"/><path class="cls-1" d="M2029.1,438V121.67h63.34V384.26h65.19V438H2029.1Z" transform="translate(3275.97 267.51)"/><path class="cls-1" d="M2187.09,438V121.67h61.14V438h-61.14Z" transform="translate(3275.97 267.51)"/><path class="cls-1" d="M2305.67,417.59q-19.89-23.38-19.89-65.74V201.22q0-40.88,19.89-61.69t58.19-20.81q38.3,0,58.19,20.81t19.89,61.69V351.85q0,42.73-19.89,65.92T2363.86,441Q2325.55,441,2305.67,417.59Zm69.61-42.17q2.94-7.36,2.95-20.62V200.12q0-10.31-2.76-16.76t-11.23-6.45q-15.84,0-15.84,23.94V355.17q0,13.63,3.31,20.62t12.15,7Q2372.33,382.79,2375.28,375.42Z" transform="translate(3275.97 267.51)"/><path class="cls-2" d="M-2697.85,279.45q-24,52.27-61.84,89.64t-89.64,58.48q-51.77,21.08-117,21.09-68.09,0-125.12-26.37a290.26,290.26,0,0,1-97.79-72.86Q-3230,302.95-3253,238.23t-23-141.41q0-62.31,17.74-127a359.22,359.22,0,0,1,56.09-117.45q38.33-52.72,99.71-86.29t148.61-33.56q68.06,0,118.88,22.53t84.85,56.57q34,34,51.29,72.38t18.21,70h-19.17q-2.88-37.39-22.05-73.34t-52.25-64.71q-33.08-28.76-78.62-46.5t-101.15-17.74q-84.37,0-142.37,34T-3189.68-129A351.34,351.34,0,0,0-3241-17.28q-15.82,60.4-15.82,114.09a412.22,412.22,0,0,0,19.17,125.59q19.17,60.4,56.57,106.42a282.84,282.84,0,0,0,91.56,73.82q54.16,27.82,123.2,27.8,61.34,0,110.25-20.13t84.37-55.61q35.46-35.46,57.53-84.37t29.72-105.46h19.17Q-2673.88,227.22-2697.85,279.45Z" transform="translate(3275.97 267.51)"/><path class="cls-2" d="M-2629.78,433.33V-251.21h280q107.36,0,157.23,42.66t51.77,132.79q1.91,69-36.43,114.57t-110.25,61.84v1.92q43.14,5.75,70,20.61t41.23,38.83q14.38,24,19.17,56.57t4.79,73.82q0,14.38,1,36t2.88,42.66q1.91,21.1,4.79,38.35t7.67,24h-21.09q-4.81-10.54-7.67-28.28t-4.31-37.87q-1.44-20.13-1.92-40.75t-0.48-36.91q0-42.18-6.23-75.26t-25.41-55.61q-19.19-22.52-54.65-34.51t-94.92-12h-257.9V433.33h-19.18ZM-2354.62,93a276.25,276.25,0,0,0,73.34-9.59,172.6,172.6,0,0,0,61.84-30.68q26.83-21.08,43.14-53.21t16.3-77.18q-1-72.85-44.1-113.61T-2345-232H-2610.6V93h256Z" transform="translate(3275.97 267.51)"/><path class="cls-2" d="M-1589.55-251.21l-277.08,396V433.33h-19.17V144.75l-276.12-396h24l261.74,375.83,263.65-375.83h23Z" transform="translate(3275.97 267.51)"/><path class="cls-2" d="M-1167.23-148.15q-17.75-36-47-58.48t-69.51-32.12q-40.27-9.57-86.29-9.59a400.44,400.44,0,0,0-73.82,7.19q-38.36,7.19-69.51,25.41a154.8,154.8,0,0,0-51.29,48.42q-20.13,30.2-20.13,76.22t20.61,73.82q20.61,27.82,53.69,45.06t75.26,26.84q42.18,9.59,86.29,20.13,47.93,12.47,90.6,24t74.3,30.68a144.7,144.7,0,0,1,50.33,50.81q18.69,31.64,18.7,85.33,0,48.9-21.09,83.41a178.71,178.71,0,0,1-55.61,57q-34.51,22.54-77.66,32.6a382.79,382.79,0,0,1-87.25,10.07q-58.49,0-107.86-13.42t-85.33-42.67q-36-29.23-55.61-75.26t-18.7-111.21h19.17q0,61.37,18.22,104t51.29,69.51q33.08,26.85,78.62,38.83t100.19,12a357.12,357.12,0,0,0,80.05-9.11q39.77-9.1,71.43-29.24a162,162,0,0,0,51.29-51.77q19.64-31.64,19.65-75.74,0-51.77-22.53-82t-57.52-47.94q-35-17.73-77.66-26.84t-82-18.7q-41.23-9.57-82.45-20.13t-74.3-29.24a150.34,150.34,0,0,1-53.21-49.85q-20.13-31.14-20.13-81,0-50.81,21.09-84.85a161,161,0,0,1,54.65-54.17q33.55-20.13,75.26-28.76a408.38,408.38,0,0,1,82.93-8.63q50.81,0,93.48,11t74.78,35.47q32.11,24.45,51.29,64.24t22.05,97.31h-19.17Q-1149.51-112.18-1167.23-148.15Z" transform="translate(3275.97 267.51)"/><path class="cls-2" d="M-1124.58-251.21h511V-232H-860V433.33h-19.17V-232h-245.44v-19.17Z" transform="translate(3275.97 267.51)"/><path class="cls-2" d="M-728.61,433.33H-749.7l277.08-684.54h24.93l270.37,684.54h-21.09L-288.54,208h-349ZM-459.2-232h-1.92L-629.86,188.85h333.64Z" transform="translate(3275.97 267.51)"/><path class="cls-2" d="M244.51,433.33h-419V-251.21h19.18V414.16H244.51v19.17Z" transform="translate(3275.97 267.51)"/><path class="cls-2" d="M286.68-251.21V-35.49H267.51V-251.21h19.17Z" transform="translate(3275.97 267.51)"/><path class="cls-2" d="M807.75-148.15q-17.75-36-47-58.48t-69.51-32.12Q651-248.32,605-248.33a400.44,400.44,0,0,0-73.82,7.19Q492.8-234,461.65-215.74a154.8,154.8,0,0,0-51.29,48.42q-20.13,30.2-20.13,76.22t20.61,73.82q20.61,27.82,53.69,45.06t75.26,26.84Q582,64.22,626.07,74.76q47.93,12.47,90.6,24T791,129.41a144.7,144.7,0,0,1,50.33,50.81Q860,211.86,860,265.55q0,48.9-21.09,83.41a178.71,178.71,0,0,1-55.61,57q-34.51,22.54-77.66,32.6a382.79,382.79,0,0,1-87.25,10.07q-58.49,0-107.86-13.42t-85.33-42.67q-36-29.23-55.61-75.26t-18.7-111.21h19.17q0,61.37,18.22,104t51.29,69.51q33.08,26.85,78.62,38.83t100.19,12a357.12,357.12,0,0,0,80.05-9.11q39.77-9.1,71.43-29.24a162,162,0,0,0,51.29-51.77q19.64-31.64,19.65-75.74,0-51.77-22.53-82t-57.52-47.94q-35-17.73-77.66-26.84t-82-18.7Q559.91,79.57,518.69,69t-74.3-29.24a150.34,150.34,0,0,1-53.21-49.85Q371-41.23,371-91.1q0-50.81,21.09-84.85a161,161,0,0,1,54.65-54.17q33.55-20.13,75.26-28.76A408.38,408.38,0,0,1,605-267.51q50.81,0,93.48,11T773.24-221q32.11,24.45,51.29,64.24t22.05,97.31H827.41Q825.47-112.18,807.75-148.15Z" transform="translate(3275.97 267.51)"/></svg>