<svg xmlns="http://www.w3.org/2000/svg" width="28.5" height="28.5" viewBox="0 0 28.5 28.5"><defs><style>.cls-1{fill:#fff;}.cls-2{fill:none;stroke:#fff;stroke-miterlimit:10;}</style></defs><title>icon-phone_white</title><g id="Layer_2" data-name="Layer 2"><g id="Blog"><g id="Footer_Destinos_copia_2" data-name="Footer Destinos copia 2"><path class="cls-1" d="M21,18.17a.66.66,0,0,1-.21.57l-1.91,1.9a.83.83,0,0,1-.33.24,1.39,1.39,0,0,1-.41.13h-.28a5.77,5.77,0,0,1-.88-.1,6.4,6.4,0,0,1-1.49-.46,12.39,12.39,0,0,1-2-1.09,14.9,14.9,0,0,1-2.39-2,15.84,15.84,0,0,1-1.66-1.9A13.83,13.83,0,0,1,8.4,13.8a10.3,10.3,0,0,1-.6-1.4,8,8,0,0,1-.27-1.07,3.41,3.41,0,0,1-.06-.71c0-.17,0-.27,0-.29a1.35,1.35,0,0,1,.12-.41,1.11,1.11,0,0,1,.25-.34L9.77,7.67a.65.65,0,0,1,.46-.2.57.57,0,0,1,.33.11,1.05,1.05,0,0,1,.24.27l1.54,2.91a.71.71,0,0,1,.07.5.89.89,0,0,1-.24.46l-.71.71a.36.36,0,0,0-.05.09.52.52,0,0,0,0,.11,2.86,2.86,0,0,0,.26.69,5.74,5.74,0,0,0,.53.84,9.39,9.39,0,0,0,1,1.14,8.69,8.69,0,0,0,1.15,1,5.16,5.16,0,0,0,.84.54,1.85,1.85,0,0,0,.52.21l.17,0,.1,0,.09-.05.82-.84a.88.88,0,0,1,.6-.23.73.73,0,0,1,.39.09h0l2.78,1.64a.72.72,0,0,1,.36.47Z"/><circle class="cls-2" cx="14.25" cy="14.25" r="13.75"/></g></g></g></svg>