<svg xmlns="http://www.w3.org/2000/svg" width="27.89" height="27.89" viewBox="0 0 27.89 27.89"><defs><style>.cls-1{fill:#0088d0;}</style></defs><title>icon-fb_blue</title><g id="Layer_2" data-name="Layer 2"><g id="Header"><path class="cls-1" d="M13.94,0a13.95,13.95,0,1,0,14,13.94A13.94,13.94,0,0,0,13.94,0ZM18,8a.22.22,0,0,1-.22.22H16a.79.79,0,0,0-.79.79v1.85h2.52a.23.23,0,0,1,.22.24l-.22,2.62a.22.22,0,0,1-.22.2h-2.3v8.68a.22.22,0,0,1-.22.23H11.86a.23.23,0,0,1-.23-.23V13.87H10.05a.22.22,0,0,1-.23-.22V11a.23.23,0,0,1,.23-.23h1.58V8.29a3.19,3.19,0,0,1,3.18-3.18h3a.22.22,0,0,1,.22.22Z"/></g></g></svg>